<svg width="28" height="29" viewBox="0 0 28 29" fill="none" xmlns="http://www.w3.org/2000/svg">
<path d="M13.6667 11H16.3334V7H20.3334V4.33333H16.3334V0.333334H13.6667V4.33333H9.66671V7H13.6667V11ZM8.33337 23C6.86671 23 5.68004 24.2 5.68004 25.6667C5.68004 27.1333 6.86671 28.3333 8.33337 28.3333C9.80004 28.3333 11 27.1333 11 25.6667C11 24.2 9.80004 23 8.33337 23ZM21.6667 23C20.2 23 19.0134 24.2 19.0134 25.6667C19.0134 27.1333 20.2 28.3333 21.6667 28.3333C23.1334 28.3333 24.3334 27.1333 24.3334 25.6667C24.3334 24.2 23.1334 23 21.6667 23ZM8.56004 18.6667L8.60004 18.5067L9.80004 16.3333H19.7334C20.7334 16.3333 21.6134 15.7867 22.0667 14.96L27.2134 5.61333L24.8934 4.33333H24.88L23.4134 7L19.7334 13.6667H10.3734L10.2 13.3067L7.21337 7L5.94671 4.33333L4.69337 1.66667H0.333374V4.33333H3.00004L7.80004 14.4533L6.00004 17.72C5.78671 18.0933 5.66671 18.5333 5.66671 19C5.66671 20.4667 6.86671 21.6667 8.33337 21.6667H24.3334V19H8.89337C8.72004 19 8.56004 18.8533 8.56004 18.6667Z" fill="white"/>
</svg>
