<svg width="28" height="28" viewBox="0 0 28 28" fill="none" xmlns="http://www.w3.org/2000/svg">
<path d="M15.3707 0.666656C16.8707 0.670656 17.632 0.678656 18.2893 0.697323L18.548 0.706656C18.8467 0.717323 19.1413 0.730656 19.4973 0.746656C20.916 0.813323 21.884 1.03732 22.7333 1.36666C23.6133 1.70532 24.3547 2.16399 25.096 2.90399C25.774 3.57052 26.2986 4.37678 26.6333 5.26666C26.9627 6.11599 27.1867 7.08399 27.2533 8.50399C27.2693 8.85866 27.2827 9.15332 27.2933 9.45332L27.3013 9.71199C27.3213 10.368 27.3293 11.1293 27.332 12.6293L27.3333 13.624V15.3707C27.3366 16.3432 27.3264 17.3157 27.3027 18.288L27.2947 18.5467C27.284 18.8467 27.2707 19.1413 27.2547 19.496C27.188 20.916 26.9613 21.8827 26.6333 22.7333C26.2996 23.6237 25.7748 24.4301 25.096 25.096C24.4293 25.7738 23.6231 26.2983 22.7333 26.6333C21.884 26.9627 20.916 27.1867 19.4973 27.2533C19.181 27.2682 18.8645 27.2816 18.548 27.2933L18.2893 27.3013C17.632 27.32 16.8707 27.3293 15.3707 27.332L14.376 27.3333H12.6307C11.6577 27.3367 10.6847 27.3265 9.712 27.3027L9.45333 27.2947C9.13681 27.2827 8.82036 27.2689 8.504 27.2533C7.08533 27.1867 6.11733 26.9627 5.26666 26.6333C4.37689 26.2992 3.57095 25.7745 2.90533 25.096C2.22672 24.4297 1.70163 23.6234 1.36666 22.7333C1.03733 21.884 0.813329 20.916 0.746663 19.496C0.731808 19.1796 0.718474 18.8632 0.706663 18.5467L0.699996 18.288C0.675426 17.3157 0.664313 16.3432 0.666663 15.3707V12.6293C0.662942 11.6568 0.67272 10.6843 0.695996 9.71199L0.70533 9.45332C0.715996 9.15332 0.72933 8.85866 0.74533 8.50399C0.811996 7.08399 1.036 6.11732 1.36533 5.26666C1.70015 4.37586 2.22629 3.56935 2.90666 2.90399C3.57212 2.22596 4.37752 1.70131 5.26666 1.36666C6.11733 1.03732 7.084 0.813323 8.504 0.746656C8.85866 0.730656 9.15466 0.717323 9.45333 0.706656L9.712 0.698656C10.6843 0.674967 11.6568 0.664744 12.6293 0.66799L15.3707 0.666656ZM14 7.33332C12.2319 7.33332 10.5362 8.0357 9.28595 9.28594C8.03571 10.5362 7.33333 12.2319 7.33333 14C7.33333 15.7681 8.03571 17.4638 9.28595 18.714C10.5362 19.9643 12.2319 20.6667 14 20.6667C15.7681 20.6667 17.4638 19.9643 18.714 18.714C19.9643 17.4638 20.6667 15.7681 20.6667 14C20.6667 12.2319 19.9643 10.5362 18.714 9.28594C17.4638 8.0357 15.7681 7.33332 14 7.33332ZM14 9.99999C14.5253 9.9999 15.0454 10.1033 15.5308 10.3042C16.0161 10.5052 16.4571 10.7997 16.8286 11.1711C17.2001 11.5425 17.4948 11.9834 17.6959 12.4686C17.897 12.9539 18.0006 13.474 18.0007 13.9993C18.0007 14.5246 17.8974 15.0448 17.6964 15.5301C17.4955 16.0154 17.2009 16.4564 16.8296 16.8279C16.4582 17.1994 16.0173 17.4942 15.532 17.6953C15.0467 17.8964 14.5266 17.9999 14.0013 18C12.9405 18 11.923 17.5786 11.1729 16.8284C10.4228 16.0783 10.0013 15.0609 10.0013 14C10.0013 12.9391 10.4228 11.9217 11.1729 11.1716C11.923 10.4214 12.9405 9.99999 14.0013 9.99999M21.0013 5.33332C20.5593 5.33332 20.1354 5.50892 19.8228 5.82148C19.5103 6.13404 19.3347 6.55796 19.3347 6.99999C19.3347 7.44202 19.5103 7.86594 19.8228 8.1785C20.1354 8.49106 20.5593 8.66666 21.0013 8.66666C21.4434 8.66666 21.8673 8.49106 22.1798 8.1785C22.4924 7.86594 22.668 7.44202 22.668 6.99999C22.668 6.55796 22.4924 6.13404 22.1798 5.82148C21.8673 5.50892 21.4434 5.33332 21.0013 5.33332Z" fill="#F4F4F5"/>
</svg>
