<svg width="39" height="39" viewBox="0 0 39 39" fill="none" xmlns="http://www.w3.org/2000/svg">
<path d="M12.125 30.75C10.0625 30.75 8.39375 32.4375 8.39375 34.5C8.39375 36.5625 10.0625 38.25 12.125 38.25C14.1875 38.25 15.875 36.5625 15.875 34.5C15.875 32.4375 14.1875 30.75 12.125 30.75ZM0.875 0.75V4.5H4.625L11.375 18.7313L8.84375 23.325C8.54375 23.85 8.375 24.4688 8.375 25.125C8.375 27.1875 10.0625 28.875 12.125 28.875H34.625V25.125H12.9125C12.65 25.125 12.4438 24.9188 12.4438 24.6562L12.5 24.4312L14.1875 21.375H28.1562C29.5625 21.375 30.8 20.6063 31.4375 19.4438L38.15 7.275C38.3 7.0125 38.375 6.69375 38.375 6.375C38.375 5.34375 37.5312 4.5 36.5 4.5H8.76875L7.00625 0.75H0.875ZM30.875 30.75C28.8125 30.75 27.1438 32.4375 27.1438 34.5C27.1438 36.5625 28.8125 38.25 30.875 38.25C32.9375 38.25 34.625 36.5625 34.625 34.5C34.625 32.4375 32.9375 30.75 30.875 30.75Z" fill="#F4F4F5"/>
</svg>
