<svg width="32" height="24" viewBox="0 0 32 24" fill="none" xmlns="http://www.w3.org/2000/svg">
<path d="M12.8334 16.75L21.0509 12L12.8334 7.24999V16.75ZM31.1367 4.35249C31.3425 5.09666 31.485 6.09416 31.58 7.36082C31.6909 8.62749 31.7384 9.71999 31.7384 10.67L31.8334 12C31.8334 15.4675 31.58 18.0167 31.1367 19.6475C30.7409 21.0725 29.8225 21.9908 28.3975 22.3867C27.6534 22.5925 26.2917 22.735 24.2017 22.83C22.1434 22.9408 20.2592 22.9883 18.5175 22.9883L16 23.0833C9.36585 23.0833 5.23335 22.83 3.60252 22.3867C2.17752 21.9908 1.25919 21.0725 0.863354 19.6475C0.65752 18.9033 0.51502 17.9058 0.42002 16.6392C0.309187 15.3725 0.261687 14.28 0.261687 13.33L0.166687 12C0.166687 8.53249 0.42002 5.98332 0.863354 4.35249C1.25919 2.92749 2.17752 2.00916 3.60252 1.61332C4.34669 1.40749 5.70835 1.26499 7.79835 1.16999C9.85669 1.05916 11.7409 1.01166 13.4825 1.01166L16 0.916656C22.6342 0.916656 26.7667 1.16999 28.3975 1.61332C29.8225 2.00916 30.7409 2.92749 31.1367 4.35249Z" fill="#F4F4F5"/>
</svg>
